<svg xmlns="http://www.w3.org/2000/svg" viewBox="0 0 255.11 289.32"><defs><style>.cls-1{fill:#264de4;}.cls-2{fill:#2965f1;}.cls-3{fill:#ebebeb;}.cls-4{fill:#fff;}</style></defs><title>Asset 4</title><g id="Layer_2" data-name="Layer 2"><g id="Layer_1-2" data-name="Layer 1"><path class="cls-1" d="M127.4,289.32,23.22,260.4,0,0H255.11L231.87,260.36l-104.47,29Z"/><path class="cls-2" d="M212,243.78,231.83,21.29H127.55V267.18L212,243.78Z"/><path class="cls-3" d="M53.22,117.87l2.86,31.94h71.47V117.87Z"/><path class="cls-3" d="M47.47,53.23l2.9,31.94h77.18V53.23Z"/><path class="cls-3" d="M127.55,200.81l-.14,0-35.57-9.6-2.27-25.47H57.51L62,215.92l65.42,18.16.15,0V200.81Z"/><path class="cls-4" d="M201.68,117.87l5.77-64.64h-80V85.17h45l-2.91,32.7h-42.1v31.94h39.33l-3.71,41.42-35.62,9.61v33.23l65.47-18.15.48-5.4,7.5-84.08.78-8.58Z"/></g></g></svg>