<svg xmlns="http://www.w3.org/2000/svg" viewBox="0 0 1582.75 1796.03"><defs><style>.cls-1{fill:#e34e26;}.cls-2{fill:#ef662a;}.cls-3{fill:#fff;}.cls-4{fill:#ebebeb;}</style></defs><title>Asset 1</title><g id="Layer_2" data-name="Layer 2"><g id="Layer_1-2" data-name="Layer 1"><polygon class="cls-1" points="144.1 1616.42 0 0 1582.75 0 1438.47 1616.54 790.99 1796.03 144.1 1616.42"/><polygon class="cls-2" points="791.37 132.12 791.37 1658.73 1314.94 1513.6 1438.29 132.12 791.37 132.12"/><polygon class="cls-3" points="294.84 330.39 348.28 929.91 1035.42 929.91 1012.36 1187.06 791.12 1246.87 570.29 1187.14 555.53 1022.03 356.53 1022.03 384.98 1340.32 791.07 1453.1 1197.67 1340.32 1252.18 731.68 529.6 731.68 511.46 528.66 1269.54 528.66 1270.15 528.66 1287.9 330.39 294.84 330.39"/><polygon class="cls-4" points="791.37 330.39 294.84 330.39 348.28 929.91 791.37 929.91 791.37 731.68 529.6 731.68 511.46 528.66 791.37 528.66 791.37 330.39"/><polygon class="cls-4" points="791.37 1246.79 791.12 1246.87 570.29 1187.14 555.53 1022.03 356.53 1022.03 384.98 1340.32 791.07 1453.1 791.37 1453.02 791.37 1246.79"/></g></g></svg>