<svg xmlns="http://www.w3.org/2000/svg" viewBox="0 0 51.46 49.57"><defs><style>.cls-1{fill:#0769ad;}</style></defs><title>Asset 1</title><g id="Layer_2" data-name="Layer 2"><g id="Layer_1-2" data-name="Layer 1"><path class="cls-1" d="M3.27,11.64c-4.56,6.55-4,15.06-.51,22,.08.17.17.33.25.49s.1.21.16.32a1.84,1.84,0,0,0,.1.18l.18.33.34.57.19.31c.12.2.26.4.38.6l.17.25c.18.27.36.54.56.81v0l.09.13.51.68.19.24.47.58.18.21c.21.25.43.5.65.75h0l0,0,.66.7.22.21.53.52.22.21c.24.22.48.45.73.66h0l.12.11.66.56.27.22.56.43.29.22.62.44.23.16.06,0,.6.4.26.17.94.58.26.15.71.39.4.2.5.27.12.05.21.1.81.37.16.07.94.39.23.09.88.33.11,0,1,.32.24.07a9.88,9.88,0,0,0,1,.29c22,4,28.43-13.24,28.43-13.24-5.38,7-14.92,8.85-24,6.79-.34-.08-.67-.18-1-.28L25,42.16l-1-.31-.14-.05L23,41.48l-.24-.09L21.87,41l-.19-.08-.78-.36-.23-.11-.6-.31-.4-.21-.73-.4-.24-.14-.94-.58-.25-.17-.67-.44L16.62,38,16,37.58l-.28-.21-.57-.45-.25-.2-.71-.6-.08-.07-.75-.68-.21-.2-.53-.52-.21-.21q-.34-.34-.66-.7l0,0L11,32.94l-.18-.21-.49-.6-.17-.22-.56-.74c-5-6.84-6.83-16.29-2.81-24"/><path class="cls-1" d="M17.42,6.13c-3.3,4.74-3.12,11.09-.55,16.1a19.66,19.66,0,0,0,1.46,2.43A11.29,11.29,0,0,0,20,26.78c.23.26.48.52.74.77l.19.19c.25.24.5.47.75.7l0,0h0c.29.25.58.49.88.73l.21.16c.3.23.6.46.91.68l0,0,.42.28.19.13.68.42.1.05c.19.12.4.23.6.34l.21.12.42.22.07,0,.88.41.2.08.72.29.31.11.66.23.3.1a6.61,6.61,0,0,0,1,.28c17,2.82,20.94-10.28,20.94-10.28-3.54,5.1-10.4,7.53-17.71,5.63q-.49-.13-1-.28l-.29-.09-.68-.23-.31-.11-.72-.29-.19-.08L29.71,27l-.44-.23L29,26.63l-.57-.32-.13-.07c-.23-.14-.46-.28-.68-.42l-.21-.14L27,25.39c-.31-.21-.61-.44-.91-.67l-.21-.17a20.43,20.43,0,0,1-6.95-9.9A15.37,15.37,0,0,1,20.1,2.33"/><path class="cls-1" d="M29.31,2a9.91,9.91,0,0,0-.79,9.56,13.49,13.49,0,0,0,7.74,7.23l.42.15.19.06a5.64,5.64,0,0,0,.6.18c9.39,1.81,11.94-4.82,12.62-5.8-2.24,3.21-6,4-10.59,2.87a11.06,11.06,0,0,1-1.11-.35c-.45-.16-.89-.34-1.33-.55a13.92,13.92,0,0,1-2.32-1.42c-4.12-3.12-6.67-9.08-4-13.94"/></g></g></svg>